<svg width="70" height="66" viewBox="0 0 70 66" fill="none" xmlns="http://www.w3.org/2000/svg">
<path d="M54.0782 28.0815H11.5938V37.2735H54.0782V28.0815Z" fill="white"/>
<path d="M37.8334 43.275C35.2871 44.5429 32.3755 44.8731 29.6099 44.2075C26.8443 43.542 24.4016 41.9234 22.7109 39.6359C21.0201 37.3484 20.1894 34.5383 20.3646 31.6992C20.5398 28.8601 21.7097 26.1734 23.6689 24.1112C25.628 22.0489 28.2512 20.7428 31.0776 20.4224C33.904 20.1019 36.7529 20.7875 39.1241 22.3588C41.4952 23.9302 43.2369 26.2867 44.0433 29.0145C44.8497 31.7423 44.6691 34.6671 43.5334 37.275H54.5224C55.566 32.4845 55.0215 27.4844 52.9714 23.0307C50.9213 18.577 47.4771 14.9118 43.1593 12.5891C38.8415 10.2665 33.8849 9.41262 29.0388 10.1567C24.1927 10.9007 19.7205 13.2022 16.2984 16.7132C12.8763 20.2242 10.6902 24.7539 10.0706 29.6175C9.45109 34.4811 10.4317 39.4141 12.8643 43.671C15.297 47.9278 19.0493 51.277 23.5541 53.2122C28.0589 55.1474 33.0712 55.5635 37.8334 54.3975V43.275Z" fill="white"/>
<path d="M43.2002 43.0798H50.2502V38.7H43.2002V43.0798ZM43.3202 60.75H50.1302V44.2578H43.3202V60.75Z" fill="white"/>
<path d="M51.75 60.75H58.6069V52.081C58.6069 50.6614 59.5433 49.8458 60.5703 49.8458C61.5973 49.8458 62.4431 50.6614 62.4431 52.081V60.75H69.3V49.876C69.3 46.1608 67.1251 43.8651 63.6514 43.8651C61.3255 43.8651 59.6641 45.1036 58.6069 46.4628V38.7H51.75V60.75Z" fill="white"/>
<path d="M37.1087 41.5695C35.0801 42.6122 32.7611 42.9467 30.5204 42.52C28.2798 42.0933 26.2461 40.9298 24.7427 39.2145L24.2207 39.534C25.8397 41.413 28.0536 42.6806 30.4936 43.1258C32.9336 43.5709 35.4525 43.1667 37.6307 41.9805L37.1372 41.7825L37.1087 41.5695Z" fill="white"/>
<path d="M32.4378 21.597C30.8875 21.5956 29.3551 21.9273 27.9441 22.5697C26.5332 23.212 25.2767 24.1499 24.2598 25.32L24.8388 25.575C25.8124 24.4957 27.0049 23.6363 28.3367 23.054C29.6685 22.4716 31.1091 22.1797 32.5626 22.1978C34.016 22.2158 35.449 22.5433 36.7659 23.1585C38.0829 23.7737 39.2537 24.6624 40.2003 25.7655L40.6758 25.392C39.6591 24.2009 38.396 23.2447 36.9737 22.5895C35.5514 21.9342 34.0038 21.5956 32.4378 21.597Z" fill="white"/>
<path d="M37.2003 57.8985C37.9964 57.8985 38.6418 57.2531 38.6418 56.457C38.6418 55.6609 37.9964 55.0155 37.2003 55.0155C36.4042 55.0155 35.7588 55.6609 35.7588 56.457C35.7588 57.2531 36.4042 57.8985 37.2003 57.8985Z" fill="white"/>
<path d="M63.5748 38.7465C64.3709 38.7465 65.0163 38.1011 65.0163 37.305C65.0163 36.5089 64.3709 35.8635 63.5748 35.8635C62.7787 35.8635 62.1333 36.5089 62.1333 37.305C62.1333 38.1011 62.7787 38.7465 63.5748 38.7465Z" fill="white"/>
<path d="M37.2015 61.8105C36.8323 61.8102 36.4713 61.9194 36.1642 62.1244C35.8571 62.3293 35.6177 62.6207 35.4763 62.9617C35.3349 63.3028 35.2978 63.6781 35.3698 64.0402C35.4417 64.4023 35.6195 64.7349 35.8805 64.996C36.1416 65.257 36.4742 65.4348 36.8363 65.5067C37.1984 65.5787 37.5737 65.5416 37.9148 65.4002C38.2558 65.2588 38.5472 65.0194 38.7521 64.7123C38.9571 64.4052 39.0663 64.0442 39.066 63.675C39.0656 63.1806 38.869 62.7066 38.5194 62.357C38.1699 62.0075 37.6959 61.8109 37.2015 61.8105ZM37.2015 64.941C36.951 64.9413 36.7061 64.8673 36.4977 64.7284C36.2893 64.5895 36.1268 64.3918 36.0308 64.1605C35.9347 63.9292 35.9095 63.6746 35.9581 63.4289C36.0068 63.1833 36.1273 62.9576 36.3043 62.7804C36.4813 62.6031 36.7068 62.4824 36.9524 62.4335C37.1981 62.3845 37.4527 62.4095 37.6841 62.5052C37.9155 62.601 38.1133 62.7633 38.2525 62.9715C38.3917 63.1797 38.466 63.4246 38.466 63.675C38.4656 64.0104 38.3323 64.332 38.0953 64.5692C37.8583 64.8065 37.5369 64.9402 37.2015 64.941Z" fill="white"/>
<path d="M32.4482 0.450012C14.7767 0.450012 0.450195 14.7765 0.450195 32.448C0.450195 50.1195 14.7767 64.446 32.4482 64.446C33.5776 64.4448 34.7062 64.3842 35.8292 64.2645C35.784 64.1213 35.7607 63.9722 35.7602 63.822C35.7604 63.7719 35.7634 63.7218 35.7692 63.672C34.6661 63.7894 33.5575 63.8484 32.4482 63.849C15.1352 63.849 1.0502 49.764 1.0502 32.451C1.0502 15.138 15.1352 1.05301 32.4482 1.05301C49.7612 1.05301 63.8462 15.138 63.8462 32.451C63.8444 34.217 63.6939 35.9798 63.3962 37.7205H64.0067C64.2951 35.9788 64.4401 34.2164 64.4402 32.451C64.4462 14.7765 50.1197 0.450012 32.4482 0.450012Z" fill="white"/>
<path d="M55.8289 16.7355C55.4598 16.7355 55.0991 16.8449 54.7922 17.05C54.4853 17.255 54.2462 17.5464 54.1049 17.8874C53.9637 18.2284 53.9267 18.6036 53.9987 18.9655C54.0707 19.3275 54.2485 19.66 54.5094 19.921C54.7704 20.1819 55.1029 20.3596 55.4648 20.4316C55.8268 20.5036 56.202 20.4667 56.543 20.3255C56.8839 20.1842 57.1754 19.9451 57.3804 19.6382C57.5854 19.3313 57.6949 18.9706 57.6949 18.6015C57.6949 18.1066 57.4983 17.632 57.1484 17.282C56.7984 16.9321 56.3238 16.7355 55.8289 16.7355ZM55.8289 19.8675C55.5785 19.8675 55.3337 19.7933 55.1255 19.6541C54.9173 19.515 54.7551 19.3173 54.6593 19.086C54.5634 18.8546 54.5384 18.6001 54.5872 18.3545C54.6361 18.1089 54.7566 17.8834 54.9337 17.7063C55.1107 17.5293 55.3363 17.4087 55.5819 17.3598C55.8275 17.311 56.082 17.3361 56.3134 17.4319C56.5447 17.5277 56.7424 17.69 56.8815 17.8982C57.0206 18.1063 57.0949 18.3511 57.0949 18.6015C57.0937 18.9366 56.9598 19.2576 56.7226 19.4943C56.4853 19.731 56.164 19.8641 55.8289 19.8645V19.8675Z" fill="white"/>
<path d="M55.5589 17.187C53.0547 13.28 49.6079 10.0658 45.5358 7.84006C41.4637 5.61436 36.8971 4.44874 32.2564 4.4505C16.9564 4.4505 4.56643 16.848 4.56643 32.1405C4.55737 38.833 6.98139 45.3006 11.3869 50.3385V49.3935C7.3623 44.5466 5.16198 38.4435 5.16793 32.1435C5.16793 17.2065 17.3179 5.05351 32.2564 5.05351C36.778 5.05543 41.2271 6.18925 45.1981 8.35159C49.169 10.5139 52.5355 13.636 54.9904 17.433C55.1593 17.3098 55.3535 17.2258 55.5589 17.187Z" fill="white"/>
<path d="M33.7021 7.30351C33.7201 7.51351 33.7306 7.72501 33.7351 7.93801C46.6006 8.61451 56.8622 19.2885 56.8622 32.3145C56.8625 34.0076 56.687 35.6962 56.3387 37.353H56.9867C57.7094 33.8163 57.6597 30.1653 56.8409 26.6496C56.0221 23.1339 54.4535 19.8365 52.2425 16.9831C50.0315 14.1297 47.2302 11.7876 44.0302 10.117C40.8303 8.44634 37.3073 7.48664 33.7021 7.30351Z" fill="white"/>
<path d="M8.03431 32.3145C8.03304 29.0699 8.68034 25.8577 9.93817 22.8668C11.196 19.8758 13.039 17.1665 15.3588 14.898C15.2208 14.733 15.0858 14.565 14.9568 14.3925C11.1244 18.1343 8.59226 23.006 7.73198 28.2927C6.87171 33.5793 7.72859 39.0025 10.1769 43.7664C12.6252 48.5302 16.536 52.3839 21.3353 54.7619C26.1347 57.1399 31.5699 57.9169 36.8433 56.979V56.334C35.3934 56.5995 33.9224 56.7331 32.4483 56.733C18.9873 56.733 8.03431 45.78 8.03431 32.3145Z" fill="white"/>
<path d="M38.0314 42.675C38.6917 42.675 39.2269 42.1398 39.2269 41.4795C39.2269 40.8193 38.6917 40.284 38.0314 40.284C37.3712 40.284 36.8359 40.8193 36.8359 41.4795C36.8359 42.1398 37.3712 42.675 38.0314 42.675Z" fill="white"/>
<path d="M11.9914 51.5325C12.6517 51.5325 13.1869 50.9973 13.1869 50.337C13.1869 49.6768 12.6517 49.1415 11.9914 49.1415C11.3311 49.1415 10.7959 49.6768 10.7959 50.337C10.7959 50.9973 11.3311 51.5325 11.9914 51.5325Z" fill="white"/>
<path d="M24.1923 24.954C23.917 24.954 23.6479 25.0356 23.4189 25.1886C23.19 25.3416 23.0116 25.559 22.9063 25.8133C22.8009 26.0677 22.7733 26.3476 22.827 26.6176C22.8808 26.8876 23.0133 27.1356 23.208 27.3303C23.4027 27.525 23.6507 27.6576 23.9207 27.7113C24.1907 27.765 24.4706 27.7374 24.725 27.6321C24.9793 27.5267 25.1967 27.3483 25.3497 27.1194C25.5027 26.8905 25.5843 26.6213 25.5843 26.346C25.5843 25.9768 25.4376 25.6228 25.1766 25.3617C24.9155 25.1007 24.5615 24.954 24.1923 24.954ZM24.1923 27.291C24.0054 27.291 23.8227 27.2356 23.6673 27.1318C23.5119 27.0279 23.3908 26.8803 23.3192 26.7076C23.2477 26.535 23.229 26.345 23.2655 26.1617C23.3019 25.9783 23.3919 25.81 23.5241 25.6778C23.6562 25.5456 23.8246 25.4556 24.0079 25.4192C24.1912 25.3827 24.3813 25.4014 24.5539 25.4729C24.7266 25.5445 24.8742 25.6656 24.978 25.821C25.0819 25.9764 25.1373 26.1591 25.1373 26.346C25.1373 26.5966 25.0377 26.837 24.8605 27.0142C24.6833 27.1914 24.4429 27.291 24.1923 27.291Z" fill="white"/>
<path d="M32.5984 6.3645C32.3531 6.3645 32.1132 6.43725 31.9092 6.57356C31.7052 6.70987 31.5462 6.90361 31.4523 7.13028C31.3584 7.35695 31.3339 7.60638 31.3817 7.84701C31.4296 8.08764 31.5478 8.30868 31.7212 8.48217C31.8947 8.65565 32.1158 8.7738 32.3564 8.82167C32.597 8.86953 32.8465 8.84497 33.0731 8.75107C33.2998 8.65718 33.4935 8.49818 33.6298 8.29419C33.7662 8.09019 33.8389 7.85035 33.8389 7.605C33.8389 7.276 33.7082 6.96048 33.4756 6.72784C33.2429 6.4952 32.9274 6.3645 32.5984 6.3645ZM32.5984 8.445C32.4319 8.445 32.2692 8.39561 32.1307 8.30308C31.9923 8.21055 31.8845 8.07903 31.8208 7.92518C31.7572 7.77133 31.7406 7.60206 31.7732 7.43878C31.8058 7.27551 31.8861 7.12556 32.0039 7.00794C32.1217 6.89031 32.2718 6.81029 32.4352 6.77799C32.5985 6.74569 32.7677 6.76257 32.9215 6.82649C33.0752 6.89041 33.2065 6.9985 33.2988 7.13708C33.3911 7.27566 33.4402 7.4385 33.4399 7.605C33.4405 7.71589 33.4192 7.82579 33.3772 7.92841C33.3351 8.03103 33.2732 8.12433 33.195 8.20294C33.1168 8.28156 33.0239 8.34395 32.9215 8.38652C32.8191 8.42909 32.7093 8.451 32.5984 8.451V8.445Z" fill="white"/>
</svg>
