<svg width="69" height="69" viewBox="0 0 69 69" fill="none" xmlns="http://www.w3.org/2000/svg">
<path d="M48.36 30.7291H15.7886V37.7763H48.36V30.7291Z" fill="#FF7D00"/>
<path d="M35.9055 42.3775C33.9533 43.3495 31.7211 43.6026 29.6008 43.0924C27.4805 42.5822 25.6078 41.3412 24.3115 39.5875C23.0153 37.8337 22.3784 35.6793 22.5127 33.5027C22.647 31.326 23.544 29.2663 25.046 27.6852C26.548 26.1041 28.5591 25.1028 30.726 24.8571C32.8929 24.6114 35.0771 25.1371 36.895 26.3417C38.7129 27.5464 40.0482 29.3531 40.6664 31.4444C41.2846 33.5357 41.1462 35.778 40.2755 37.7775H48.7004C49.5004 34.1047 49.083 30.2713 47.5113 26.8568C45.9396 23.4423 43.299 20.6323 39.9886 18.8516C36.6783 17.0709 32.8783 16.4163 29.1629 16.9867C25.4476 17.5572 22.0189 19.3216 19.3953 22.0134C16.7717 24.7052 15.0957 28.178 14.6207 31.9067C14.1457 35.6354 14.8975 39.4175 16.7625 42.681C18.6275 45.9446 21.5043 48.5123 24.958 49.996C28.4117 51.4797 32.2545 51.7986 35.9055 50.9047V42.3775Z" fill="#FF7D00"/>
<path d="M35.35 41.0699C33.7947 41.8693 32.0169 42.1258 30.299 41.7986C28.5812 41.4715 27.0221 40.5795 25.8694 39.2644L25.4692 39.5094C26.7105 40.9499 28.4078 41.9218 30.2785 42.263C32.1491 42.6043 34.0803 42.2944 35.7502 41.385L35.3719 41.2332L35.35 41.0699Z" fill="#FF7D00"/>
<path d="M31.7688 25.7577C30.5803 25.7566 29.4054 26.011 28.3237 26.5034C27.242 26.9958 26.2787 27.7149 25.499 28.612L25.9429 28.8075C26.6894 27.98 27.6036 27.3212 28.6247 26.8747C29.6457 26.4282 30.7502 26.2045 31.8645 26.2183C32.9788 26.2321 34.0774 26.4832 35.0871 26.9548C36.0968 27.4265 36.9944 28.1078 37.7201 28.9535L38.0846 28.6672C37.3052 27.754 36.3368 27.0209 35.2464 26.5186C34.1559 26.0162 32.9694 25.7566 31.7688 25.7577Z" fill="#FF7D00"/>
<path d="M35.4201 53.5888C36.0304 53.5888 36.5252 53.094 36.5252 52.4837C36.5252 51.8733 36.0304 51.3785 35.4201 51.3785C34.8097 51.3785 34.3149 51.8733 34.3149 52.4837C34.3149 53.094 34.8097 53.5888 35.4201 53.5888Z" fill="#FF7D00"/>
<path d="M55.6408 38.9056C56.2512 38.9056 56.7459 38.4108 56.7459 37.8005C56.7459 37.1901 56.2512 36.6953 55.6408 36.6953C55.0304 36.6953 54.5356 37.1901 54.5356 37.8005C54.5356 38.4108 55.0304 38.9056 55.6408 38.9056Z" fill="#FF7D00"/>
<path d="M35.4215 56.588C35.1385 56.5878 34.8617 56.6715 34.6263 56.8286C34.3908 56.9857 34.2073 57.2092 34.0989 57.4706C33.9904 57.7321 33.962 58.0198 34.0172 58.2974C34.0723 58.575 34.2086 58.8301 34.4088 59.0302C34.6089 59.2303 34.8639 59.3666 35.1415 59.4218C35.4191 59.4769 35.7069 59.4485 35.9683 59.3401C36.2298 59.2317 36.4532 59.0481 36.6103 58.8127C36.7674 58.5773 36.8512 58.3005 36.8509 58.0175C36.8506 57.6384 36.6999 57.275 36.4319 57.007C36.1639 56.739 35.8005 56.5883 35.4215 56.588ZM35.4215 58.9881C35.2295 58.9883 35.0417 58.9316 34.8819 58.825C34.7222 58.7185 34.5976 58.567 34.524 58.3897C34.4503 58.2124 34.4309 58.0172 34.4683 57.8288C34.5056 57.6405 34.5979 57.4674 34.7336 57.3316C34.8693 57.1957 35.0423 57.1031 35.2306 57.0656C35.4189 57.0281 35.6141 57.0472 35.7915 57.1206C35.9689 57.1941 36.1206 57.3185 36.2273 57.4781C36.334 57.6377 36.3909 57.8254 36.3909 58.0175C36.3906 58.2746 36.2884 58.5211 36.1067 58.703C35.925 58.885 35.6786 58.9875 35.4215 58.9881Z" fill="#FF7D00"/>
<path d="M31.7769 9.54498C18.2288 9.54498 7.24512 20.5286 7.24512 34.0768C7.24512 47.6249 18.2288 58.6086 31.7769 58.6086C32.6428 58.6076 33.508 58.5612 34.369 58.4694C34.3343 58.3597 34.3165 58.2453 34.3161 58.1302C34.3163 58.0918 34.3186 58.0534 34.323 58.0152C33.4773 58.1051 32.6274 58.1504 31.7769 58.1509C18.5036 58.1509 7.70512 47.3524 7.70512 34.0791C7.70512 20.8058 18.5036 10.0073 31.7769 10.0073C45.0502 10.0073 55.8487 20.8058 55.8487 34.0791C55.8474 35.433 55.7319 36.7845 55.5037 38.119H55.9718C56.1929 36.7837 56.304 35.4326 56.3041 34.0791C56.3087 20.5286 45.3251 9.54498 31.7769 9.54498Z" fill="#FF7D00"/>
<path d="M49.7021 22.0305C49.4191 22.0305 49.1425 22.1144 48.9073 22.2716C48.672 22.4288 48.4887 22.6522 48.3804 22.9136C48.2721 23.1751 48.2438 23.4627 48.299 23.7402C48.3542 24.0177 48.4904 24.2726 48.6905 24.4727C48.8906 24.6728 49.1455 24.809 49.423 24.8642C49.7005 24.9194 49.9881 24.8911 50.2496 24.7828C50.511 24.6745 50.7344 24.4912 50.8916 24.2559C51.0488 24.0207 51.1327 23.7441 51.1327 23.4611C51.1327 23.0817 50.982 22.7178 50.7137 22.4495C50.4454 22.1812 50.0815 22.0305 49.7021 22.0305ZM49.7021 24.4317C49.5101 24.4317 49.3225 24.3748 49.1628 24.2681C49.0032 24.1615 48.8788 24.0099 48.8054 23.8325C48.7319 23.6552 48.7127 23.46 48.7501 23.2718C48.7876 23.0835 48.88 22.9105 49.0158 22.7748C49.1515 22.6391 49.3245 22.5466 49.5127 22.5092C49.701 22.4717 49.8962 22.4909 50.0735 22.5644C50.2509 22.6379 50.4025 22.7623 50.5091 22.9219C50.6158 23.0815 50.6727 23.2691 50.6727 23.4611C50.6718 23.718 50.5691 23.9642 50.3873 24.1456C50.2054 24.3271 49.959 24.4291 49.7021 24.4294V24.4317Z" fill="#FF7D00"/>
<path d="M49.4952 22.3767C47.5752 19.3814 44.9327 16.9171 41.8107 15.2107C38.6888 13.5044 35.1877 12.6107 31.6299 12.6121C19.8999 12.6121 10.4009 22.1168 10.4009 33.8411C10.394 38.972 12.2524 43.9305 15.6299 47.7929V47.0684C12.5444 43.3524 10.8575 38.6733 10.862 33.8434C10.862 22.3917 20.177 13.0744 31.6299 13.0744C35.0964 13.0758 38.5074 13.9451 41.5518 15.6029C44.5962 17.2607 47.1772 19.6543 49.0593 22.5653C49.1888 22.4709 49.3377 22.4065 49.4952 22.3767Z" fill="#FF7D00"/>
<path d="M32.7383 14.7993C32.7521 14.9603 32.7601 15.1225 32.7636 15.2858C42.6271 15.8044 50.4943 23.9878 50.4943 33.9744C50.4945 35.2725 50.36 36.567 50.0929 37.8373H50.5897C51.1439 35.1258 51.1057 32.3267 50.478 29.6313C49.8502 26.9359 48.6476 24.408 46.9525 22.2204C45.2574 20.0328 43.1098 18.2371 40.6565 16.9563C38.2032 15.6755 35.5022 14.9397 32.7383 14.7993Z" fill="#FF7D00"/>
<path d="M13.0598 33.9745C13.0588 31.4869 13.555 29.0242 14.5194 26.7312C15.4837 24.4381 16.8967 22.361 18.6752 20.6218C18.5694 20.4953 18.4659 20.3665 18.367 20.2343C15.4288 23.103 13.4875 26.838 12.828 30.8911C12.1684 34.9441 12.8254 39.1019 14.7024 42.7542C16.5794 46.4065 19.5777 49.361 23.2572 51.1841C26.9367 53.0072 31.1037 53.603 35.1467 52.8839V52.3894C34.035 52.593 32.9073 52.6954 31.7772 52.6953C21.457 52.6953 13.0598 44.298 13.0598 33.9745Z" fill="#FF7D00"/>
<path d="M36.0572 41.9175C36.5634 41.9175 36.9737 41.5072 36.9737 41.001C36.9737 40.4948 36.5634 40.0844 36.0572 40.0844C35.551 40.0844 35.1406 40.4948 35.1406 41.001C35.1406 41.5072 35.551 41.9175 36.0572 41.9175Z" fill="#FF7D00"/>
<path d="M16.0933 48.7082C16.5995 48.7082 17.0099 48.2979 17.0099 47.7917C17.0099 47.2855 16.5995 46.8751 16.0933 46.8751C15.5871 46.8751 15.1768 47.2855 15.1768 47.7917C15.1768 48.2979 15.5871 48.7082 16.0933 48.7082Z" fill="#FF7D00"/>
<path d="M25.4471 28.3314C25.236 28.3314 25.0297 28.394 24.8542 28.5112C24.6787 28.6285 24.5419 28.7952 24.4611 28.9902C24.3803 29.1852 24.3592 29.3997 24.4004 29.6068C24.4416 29.8138 24.5432 30.0039 24.6925 30.1532C24.8417 30.3024 25.0319 30.4041 25.2389 30.4453C25.4459 30.4864 25.6605 30.4653 25.8555 30.3845C26.0505 30.3038 26.2172 30.167 26.3344 29.9915C26.4517 29.816 26.5143 29.6096 26.5143 29.3986C26.5143 29.1155 26.4018 28.8441 26.2017 28.6439C26.0016 28.4438 25.7301 28.3314 25.4471 28.3314ZM25.4471 30.1231C25.3038 30.1231 25.1637 30.0806 25.0446 30.001C24.9254 29.9214 24.8326 29.8082 24.7777 29.6758C24.7229 29.5434 24.7086 29.3978 24.7365 29.2572C24.7645 29.1167 24.8335 28.9876 24.9348 28.8863C25.0361 28.7849 25.1652 28.7159 25.3057 28.688C25.4463 28.66 25.592 28.6744 25.7243 28.7292C25.8567 28.784 25.9699 28.8769 26.0495 28.996C26.1291 29.1152 26.1716 29.2553 26.1716 29.3986C26.1716 29.5907 26.0953 29.775 25.9594 29.9109C25.8235 30.0467 25.6392 30.1231 25.4471 30.1231Z" fill="#FF7D00"/>
<path d="M31.892 14.0795C31.7039 14.0795 31.52 14.1352 31.3636 14.2397C31.2072 14.3443 31.0853 14.4928 31.0133 14.6666C30.9413 14.8403 30.9225 15.0316 30.9592 15.2161C30.9959 15.4005 31.0865 15.57 31.2195 15.703C31.3525 15.836 31.5219 15.9266 31.7064 15.9633C31.8909 16 32.0821 15.9812 32.2559 15.9092C32.4297 15.8372 32.5782 15.7153 32.6827 15.5589C32.7872 15.4025 32.843 15.2186 32.843 15.0305C32.843 14.7783 32.7428 14.5364 32.5645 14.358C32.3861 14.1797 32.1442 14.0795 31.892 14.0795ZM31.892 15.6745C31.7643 15.6745 31.6395 15.6367 31.5334 15.5657C31.4273 15.4948 31.3446 15.3939 31.2958 15.276C31.247 15.158 31.2343 15.0283 31.2593 14.9031C31.2843 14.7779 31.3458 14.6629 31.4362 14.5728C31.5265 14.4826 31.6416 14.4212 31.7668 14.3965C31.892 14.3717 32.0218 14.3847 32.1397 14.4337C32.2575 14.4827 32.3582 14.5655 32.4289 14.6718C32.4997 14.778 32.5373 14.9029 32.5371 15.0305C32.5376 15.1155 32.5212 15.1998 32.489 15.2785C32.4568 15.3571 32.4093 15.4287 32.3494 15.4889C32.2894 15.5492 32.2182 15.597 32.1397 15.6297C32.0612 15.6623 31.977 15.6791 31.892 15.6791V15.6745Z" fill="#FF7D00"/>
<path d="M38.1782 39.733H44.6321V35.7509H38.1782V39.733ZM38.2881 55.7991H44.5223V40.8041H38.2881V55.7991Z" fill="#007FC6"/>
<path d="M45.8965 55.7991H52.1307V47.9171C52.1307 46.6263 52.982 45.8848 53.9158 45.8848C54.8495 45.8848 55.6185 46.6263 55.6185 47.9171V55.7991H61.8527V45.9123C61.8527 42.5343 59.8753 40.4471 56.717 40.4471C54.6024 40.4471 53.0919 41.5731 52.1307 42.8089V35.7509H45.8965V55.7991Z" fill="#636466"/>
</svg>
